<svg width="68" height="48" viewBox="0 0 68 48" fill="none" xmlns="http://www.w3.org/2000/svg">
<path d="M30.9677 0.0429415L10.3021 34.0258H2.7575C-0.653969 33.2635 -0.194733 28.4149 0.461318 26.0858L14.5664 3.8541C16.6658 0.297019 20.0335 -0.168789 21.455 0.0429415H30.9677Z" fill="#190404"/>
<path d="M25.0633 12.4292L20.4709 19.4163L34.904 43.8712C37.2658 46.9202 39.8244 47.8941 40.8085 48H51.9614L32.9359 15.9228C30.8365 12.1116 26.8127 12.0057 25.0633 12.4292Z" fill="#190404"/>
<path d="M28.3435 35.6137H2.7575L7.34987 43.8712C8.66197 46.1579 11.1768 47.5765 12.2703 48H28.3435C32.2798 46.2215 32.3892 42.6009 31.9518 41.0129L28.3435 35.6137Z" fill="#190404"/>
<path d="M34.904 17.1931L39.1684 24.4979H56.8818L60.49 17.1931C59.9652 14.3983 56.7724 12.8527 55.2416 12.4292H40.1524C37.5282 12.6833 35.5601 15.711 34.904 17.1931Z" fill="#190404"/>
<path d="M61.8021 18.4635L49.0091 40.3777L52.6174 46.7296C55.504 48.7622 58.6312 47.1531 59.834 46.0944L67.0506 34.6609C68.3627 31.612 68.0346 29.3677 67.7066 28.6266L61.8021 18.4635Z" fill="#190404"/>
</svg>
